ISO-10303-21;
HEADER;
FILE_DESCRIPTION (( 'STEP AP214' ),
    '1' );
FILE_NAME ('KingQueen.STEP',
    '2026-09-16T12:32:05',
    ( '' ),
    ( '' ),
    'SwSTEP 2.0',
    'SolidWorks 2025',
    '' );
FILE_SCHEMA (( 'AUTOMOTIVE_DESIGN' ));
ENDSEC;

DATA;
#1 = DIRECTION ( 'NONE',  ( -1.000000000000000000, -2.846147746615054256E-17, -0.000000000000000000 ) ) ;
#2 = AXIS2_PLACEMENT_3D ( 'NONE', #531, #655, #177 ) ;
#3 = AXIS2_PLACEMENT_3D ( 'NONE', #350, #648, #294 ) ;
#4 = SURFACE_STYLE_FILL_AREA ( #57 ) ;
#5 = FACE_OUTER_BOUND ( 'NONE', #718, .T. ) ;
#6 = EDGE_LOOP ( 'NONE', ( #72, #395, #329, #427 ) ) ;
#7 = VERTEX_POINT ( 'NONE', #674 ) ;
#8 = DIRECTION ( 'NONE',  ( 0.000000000000000000, -1.000000000000000000, 0.000000000000000000 ) ) ;
#9 = CARTESIAN_POINT ( 'NONE',  ( 63.48321083858993319, 6.659322864029778799, 0.000000000000000000 ) ) ;
#10 = DIRECTION ( 'NONE',  ( -1.000000000000000000, -2.846147746615054256E-17, -0.000000000000000000 ) ) ;
#11 = ORIENTED_EDGE ( 'NONE', *, *, #528, .T. ) ;
#12 = AXIS2_PLACEMENT_3D ( 'NONE', #33, #384, #253 ) ;
#13 = DIRECTION ( 'NONE',  ( -1.000000000000000000, 0.000000000000000000, 0.000000000000000000 ) ) ;
#14 = CARTESIAN_POINT ( 'NONE',  ( -3.107545438642875954E-16, 10.91842629160311162, 0.000000000000000000 ) ) ;
#15 = VERTEX_POINT ( 'NONE', #381 ) ;
#16 = CARTESIAN_POINT ( 'NONE',  ( 0.9999999999999997780, 10.91842629160311162, 0.000000000000000000 ) ) ;
#17 = DIRECTION ( 'NONE',  ( -1.000000000000000000, -2.846147746615054256E-17, -0.000000000000000000 ) ) ;
#18 = EDGE_CURVE ( 'NONE', #496, #310, #416, .T. ) ;
#19 = AXIS2_PLACEMENT_3D ( 'NONE', #407, #522, #163 ) ;
#20 = VERTEX_POINT ( 'NONE', #677 ) ;
#21 = ORIENTED_EDGE ( 'NONE', *, *, #251, .T. ) ;
#22 = CARTESIAN_POINT ( 'NONE',  ( -3.107545438642875954E-16, 21.83685258320622324, 1.337121580973805631E-15 ) ) ;
#23 = CARTESIAN_POINT ( 'NONE',  ( 47.99991682153975603, 10.91842629160311340, 0.000000000000000000 ) ) ;
#24 = AXIS2_PLACEMENT_3D ( 'NONE', #214, #108, #686 ) ;
#25 = CARTESIAN_POINT ( 'NONE',  ( 62.87957061030144246, 12.53763369422956586, 0.000000000000000000 ) ) ;
#26 = DIRECTION ( 'NONE',  ( 3.485525727792578152E-33, -1.224646799147353207E-16, 1.000000000000000000 ) ) ;
#27 = VERTEX_POINT ( 'NONE', #144 ) ;
#28 = CARTESIAN_POINT ( 'NONE',  ( 3.499999999999999556, 10.91842629160311162, 0.000000000000000000 ) ) ;
#29 = ORIENTED_EDGE ( 'NONE', *, *, #628, .T. ) ;
#30 = CIRCLE ( 'NONE', #424, 89.00000000000001421 ) ;
#31 = PRODUCT_DEFINITION_SHAPE ( 'NONE', 'NONE',  #231 ) ;
#32 = AXIS2_PLACEMENT_3D ( 'NONE', #602, #305, #659 ) ;
#33 = CARTESIAN_POINT ( 'NONE',  ( 0.000000000000000000, 10.91842629160311162, 0.000000000000000000 ) ) ;
#34 = ORIENTED_EDGE ( 'NONE', *, *, #503, .F. ) ;
#35 = APPLICATION_PROTOCOL_DEFINITION ( 'draft international standard', 'automotive_design', 1998, #699 ) ;
#36 = ORIENTED_EDGE ( 'NONE', *, *, #568, .F. ) ;
#37 = AXIS2_PLACEMENT_3D ( 'NONE', #541, #172, #593 ) ;
#38 = VERTEX_POINT ( 'NONE', #517 ) ;
#39 = STYLED_ITEM ( 'NONE', ( #527 ), #322 ) ;
#40 = AXIS2_PLACEMENT_3D ( 'NONE', #87, #739, #444 ) ;
#41 = ORIENTED_EDGE ( 'NONE', *, *, #641, .T. ) ;
#42 = ADVANCED_FACE ( 'NONE', ( #460 ), #78, .T. ) ;
#43 = DIRECTION ( 'NONE',  ( 0.000000000000000000, 1.000000000000000000, 0.000000000000000000 ) ) ;
#44 = EDGE_CURVE ( 'NONE', #209, #627, #511, .T. ) ;
#45 = AXIS2_PLACEMENT_3D ( 'NONE', #586, #577, #103 ) ;
#46 = CARTESIAN_POINT ( 'NONE',  ( 8.000000000000003553, 10.91842629160311162, 0.000000000000000000 ) ) ;
#47 = DIRECTION ( 'NONE',  ( -2.846147746615054256E-17, 1.000000000000000000, 0.000000000000000000 ) ) ;
#48 = AXIS2_PLACEMENT_3D ( 'NONE', #523, #401, #405 ) ;
#49 = CARTESIAN_POINT ( 'NONE',  ( 27.99943846145029269, 103.1183343400225141, 1.129123222731771107E-14 ) ) ;
#50 = DIRECTION ( 'NONE',  ( 1.000000000000000000, 2.846147746615054256E-17, 0.000000000000000000 ) ) ;
#51 = ADVANCED_FACE ( 'NONE', ( #456 ), #347, .T. ) ;
#52 = DIRECTION ( 'NONE',  ( 0.000000000000000000, -1.000000000000000000, 0.000000000000000000 ) ) ;
#53 = CARTESIAN_POINT ( 'NONE',  ( 62.87957061030144246, 10.91842629160311340, 0.000000000000000000 ) ) ;
#54 = FACE_OUTER_BOUND ( 'NONE', #445, .T. ) ;
#55 = AXIS2_PLACEMENT_3D ( 'NONE', #355, #712, #120 ) ;
#56 = CARTESIAN_POINT ( 'NONE',  ( 47.99991682153975603, 6.118426291603116240, 0.000000000000000000 ) ) ;
#57 = FILL_AREA_STYLE ('',( #538 ) ) ;
#58 = ADVANCED_FACE ( 'NONE', ( #403 ), #711, .T. ) ;
#59 = DIRECTION ( 'NONE',  ( 0.000000000000000000, 0.000000000000000000, -1.000000000000000000 ) ) ;
#60 = DIRECTION ( 'NONE',  ( -1.000000000000000000, -2.846147746615054256E-17, 0.000000000000000000 ) ) ;
#61 = FACE_OUTER_BOUND ( 'NONE', #392, .T. ) ;
#62 = EDGE_CURVE ( 'NONE', #208, #740, #336, .T. ) ;
#63 = AXIS2_PLACEMENT_3D ( 'NONE', #758, #226, #701 ) ;
#64 = ORIENTED_EDGE ( 'NONE', *, *, #18, .T. ) ;
#65 = DIRECTION ( 'NONE',  ( 2.846147746615054256E-17, -1.000000000000000000, 0.000000000000000000 ) ) ;
#66 = LINE ( 'NONE', #709, #264 ) ;
#67 = ORIENTED_EDGE ( 'NONE', *, *, #349, .T. ) ;
#68 = EDGE_CURVE ( 'NONE', #192, #310, #439, .T. ) ;
#69 = DIRECTION ( 'NONE',  ( 0.000000000000000000, -1.000000000000000000, 0.000000000000000000 ) ) ;
#70 = CARTESIAN_POINT ( 'NONE',  ( 5.000000000000000000, -6.505213034913026604E-16, 0.000000000000000000 ) ) ;
#71 = MECHANICAL_DESIGN_GEOMETRIC_PRESENTATION_REPRESENTATION (  '', ( #39 ), #506 ) ;
#72 = ORIENTED_EDGE ( 'NONE', *, *, #581, .F. ) ;
#73 = CIRCLE ( 'NONE', #608, 1.619207402626452241 ) ;
#74 = ADVANCED_FACE ( 'NONE', ( #337 ), #734, .F. ) ;
#75 = ORIENTED_EDGE ( 'NONE', *, *, #397, .T. ) ;
#76 = CARTESIAN_POINT ( 'NONE',  ( 50.99991682153975603, 14.91842629160311695, 0.000000000000000000 ) ) ;
#77 = CARTESIAN_POINT ( 'NONE',  ( 2.276918197292042419E-16, 2.918426291603114731, 0.000000000000000000 ) ) ;
#78 = TOROIDAL_SURFACE ( 'NONE', #211, 2.913718049689090428, 1.689863634793794089 ) ;
#79 = VERTEX_POINT ( 'NONE', #343 ) ;
#80 = DIRECTION ( 'NONE',  ( 2.105246936865056989E-17, -1.000000000000000000, 0.000000000000000000 ) ) ;
#81 = CYLINDRICAL_SURFACE ( 'NONE', #12, 10.91842629160311162 ) ;
#82 = ORIENTED_EDGE ( 'NONE', *, *, #585, .T. ) ;
#83 = AXIS2_PLACEMENT_3D ( 'NONE', #463, #514, #95 ) ;
#84 = DIRECTION ( 'NONE',  ( -1.000000000000000000, -2.846147746615054256E-17, -0.000000000000000000 ) ) ;
#85 = DIRECTION ( 'NONE',  ( -1.000000000000000000, -2.846147746615054256E-17, -0.000000000000000000 ) ) ;
#86 = ORIENTED_EDGE ( 'NONE', *, *, #513, .F. ) ;
#87 = CARTESIAN_POINT ( 'NONE',  ( 3.500000000000000000, 4.672746594982906965E-33, 0.000000000000000000 ) ) ;
#88 = ORIENTED_EDGE ( 'NONE', *, *, #707, .T. ) ;
#89 = TOROIDAL_SURFACE ( 'NONE', #318, 92.19990804841940246, 89.00000000000001421 ) ;
#90 = CARTESIAN_POINT ( 'NONE',  ( 3.107545438642875954E-16, 0.000000000000000000, 0.000000000000000000 ) ) ;
#91 = EDGE_LOOP ( 'NONE', ( #36, #197, #92, #136 ) ) ;
#92 = ORIENTED_EDGE ( 'NONE', *, *, #282, .T. ) ;
#93 = EDGE_CURVE ( 'NONE', #254, #192, #406, .T. ) ;
#94 = VERTEX_POINT ( 'NONE', #583 ) ;
#95 = DIRECTION ( 'NONE',  ( 0.000000000000000000, -1.000000000000000000, 0.000000000000000000 ) ) ;
#96 = CIRCLE ( 'NONE', #233, 7.999999999999998224 ) ;
#97 = FACE_OUTER_BOUND ( 'NONE', #404, .T. ) ;
#98 = DIRECTION ( 'NONE',  ( -1.000000000000000000, -2.846147746615054256E-17, -0.000000000000000000 ) ) ;
#99 = AXIS2_PLACEMENT_3D ( 'NONE', #638, #159, #47 ) ;
#100 = DIRECTION ( 'NONE',  ( 2.846147746615054256E-17, -1.000000000000000000, 0.000000000000000000 ) ) ;
#101 = VERTEX_POINT ( 'NONE', #277 ) ;
#102 = DIRECTION ( 'NONE',  ( -1.000000000000000000, -2.846147746615054256E-17, -0.000000000000000000 ) ) ;
#103 = DIRECTION ( 'NONE',  ( 2.846147746615054256E-17, -1.000000000000000000, 0.000000000000000000 ) ) ;
#104 = ORIENTED_EDGE ( 'NONE', *, *, #430, .T. ) ;
#105 = CYLINDRICAL_SURFACE ( 'NONE', #552, 10.30000000000000071 ) ;
#106 = AXIS2_PLACEMENT_3D ( 'NONE', #557, #626, #435 ) ;
#107 = FACE_OUTER_BOUND ( 'NONE', #755, .T. ) ;
#108 = DIRECTION ( 'NONE',  ( -1.000000000000000000, -2.846147746615054256E-17, -0.000000000000000000 ) ) ;
#109 = CARTESIAN_POINT ( 'NONE',  ( 44.79991682153976029, 15.71842629160310345, 5.878304635907296183E-16 ) ) ;
#110 = ADVANCED_FACE ( 'NONE', ( #97 ), #533, .F. ) ;
#111 = CIRCLE ( 'NONE', #48, 7.999999999999998224 ) ;
#112 = DIRECTION ( 'NONE',  ( 2.105246936865056989E-17, -1.000000000000000000, 0.000000000000000000 ) ) ;
#113 = FACE_OUTER_BOUND ( 'NONE', #566, .T. ) ;
#114 = DIRECTION ( 'NONE',  ( 0.000000000000000000, -1.000000000000000000, 0.000000000000000000 ) ) ;
#115 = DIRECTION ( 'NONE',  ( 2.846147746615054256E-17, -1.000000000000000000, 0.000000000000000000 ) ) ;
#116 = PLANE ( 'NONE',  #529 ) ;
#117 = AXIS2_PLACEMENT_3D ( 'NONE', #724, #363, #130 ) ;
#118 = EDGE_LOOP ( 'NONE', ( #446, #82, #605, #623 ) ) ;
#119 = ORIENTED_EDGE ( 'NONE', *, *, #124, .F. ) ;
#120 = DIRECTION ( 'NONE',  ( 2.846147746615054256E-17, -1.000000000000000000, 0.000000000000000000 ) ) ;
#121 = DIRECTION ( 'NONE',  ( 2.846147746615054256E-17, -1.000000000000000000, 0.000000000000000000 ) ) ;
#122 = AXIS2_PLACEMENT_3D ( 'NONE', #489, #59, #13 ) ;
#123 = DIRECTION ( 'NONE',  ( -1.000000000000000000, -2.846147746615054256E-17, -0.000000000000000000 ) ) ;
#124 = EDGE_CURVE ( 'NONE', #7, #505, #574, .T. ) ;
#125 = DIRECTION ( 'NONE',  ( -1.000000000000000000, -2.846147746615054256E-17, -0.000000000000000000 ) ) ;
#126 = DIRECTION ( 'NONE',  ( -1.000000000000000000, -2.846147746615054256E-17, -0.000000000000000000 ) ) ;
#127 = AXIS2_PLACEMENT_3D ( 'NONE', #547, #367, #490 ) ;
#128 = EDGE_LOOP ( 'NONE', ( #482, #11, #453, #268 ) ) ;
#129 = CARTESIAN_POINT ( 'NONE',  ( 5.000000000000002665, 10.91842629160311162, 0.000000000000000000 ) ) ;
#130 = DIRECTION ( 'NONE',  ( 0.000000000000000000, -1.000000000000000000, 0.000000000000000000 ) ) ;
#131 = VECTOR ( 'NONE', #135, 999.9999999999998863 ) ;
#132 = EDGE_LOOP ( 'NONE', ( #462, #447, #161 ) ) ;
#133 = ADVANCED_BREP_SHAPE_REPRESENTATION ( 'KingQueen', ( #322, #287 ), #730 ) ;
#134 = CARTESIAN_POINT ( 'NONE',  ( -6.215090877285751909E-16, 21.83685258320622324, 1.337121580973805631E-15 ) ) ;
#135 = DIRECTION ( 'NONE',  ( 0.7660444431189835646, -0.6427876096865328126, 7.871877887341906178E-17 ) ) ;
#136 = ORIENTED_EDGE ( 'NONE', *, *, #62, .F. ) ;
#137 = CIRCLE ( 'NONE', #382, 1.689863634793793645 ) ;
#138 = CARTESIAN_POINT ( 'NONE',  ( 1.553772719321437977E-16, 4.422266723848655556E-33, 0.000000000000000000 ) ) ;
#139 = DIRECTION ( 'NONE',  ( -1.000000000000000000, -2.846147746615054256E-17, -0.000000000000000000 ) ) ;
#140 = ORIENTED_EDGE ( 'NONE', *, *, #210, .F. ) ;
#141 = DIRECTION ( 'NONE',  ( 1.000000000000000000, 2.846147746615054256E-17, 0.000000000000000000 ) ) ;
#142 = CARTESIAN_POINT ( 'NONE',  ( 47.99991682153975603, 15.71842629160311056, 5.878304635907292239E-16 ) ) ;
#143 = CIRCLE ( 'NONE', #679, 2.999999999999995559 ) ;
#144 = CARTESIAN_POINT ( 'NONE',  ( 47.99991682153975603, 2.918426291603116507, 0.000000000000000000 ) ) ;
#145 = ADVANCED_FACE ( 'NONE', ( #107 ), #259, .F. ) ;
#146 = CARTESIAN_POINT ( 'NONE',  ( 3.499999999999999556, 10.91842629160311162, 0.000000000000000000 ) ) ;
#147 = EDGE_LOOP ( 'NONE', ( #29, #104 ) ) ;
#148 = ADVANCED_FACE ( 'NONE', ( #573, #216 ), #576, .T. ) ;
#149 = ORIENTED_CLOSED_SHELL ( 'NONE', *, #745, .F. );
#150 = DIRECTION ( 'NONE',  ( 0.000000000000000000, 0.000000000000000000, 1.000000000000000000 ) ) ;
#151 = VERTEX_POINT ( 'NONE', #271 ) ;
#152 = EDGE_LOOP ( 'NONE', ( #376, #265, #295, #365 ) ) ;
#153 = ORIENTED_EDGE ( 'NONE', *, *, #581, .T. ) ;
#154 = CARTESIAN_POINT ( 'NONE',  ( 8.000000000000003553, 6.200000000000001066, 0.000000000000000000 ) ) ;
#155 = ADVANCED_FACE ( 'NONE', ( #448 ), #474, .T. ) ;
#156 = TOROIDAL_SURFACE ( 'NONE', #55, 4.718426291603110556, 3.200000000000000622 ) ;
#157 = DIRECTION ( 'NONE',  ( 0.000000000000000000, -1.000000000000000000, -1.224646799147352961E-16 ) ) ;
#158 = ORIENTED_EDGE ( 'NONE', *, *, #487, .F. ) ;
#159 = DIRECTION ( 'NONE',  ( 1.000000000000000000, 2.846147746615054256E-17, 0.000000000000000000 ) ) ;
#160 = CARTESIAN_POINT ( 'NONE',  ( 27.99943846145029269, 103.1183343400225141, 1.129123222731771107E-14 ) ) ;
#161 = ORIENTED_EDGE ( 'NONE', *, *, #707, .F. ) ;
#162 = AXIS2_PLACEMENT_3D ( 'NONE', #166, #632, #412 ) ;
#163 = DIRECTION ( 'NONE',  ( 0.000000000000000000, -1.000000000000000000, 0.000000000000000000 ) ) ;
#164 = ORIENTED_EDGE ( 'NONE', *, *, #44, .F. ) ;
#165 = DIRECTION ( 'NONE',  ( -1.000000000000000000, -2.846147746615054256E-17, -0.000000000000000000 ) ) ;
#166 = CARTESIAN_POINT ( 'NONE',  ( 62.87957061030144246, 10.91842629160311340, 0.000000000000000000 ) ) ;
#167 = DIRECTION ( 'NONE',  ( 0.000000000000000000, -1.000000000000000000, -1.224646799147353454E-16 ) ) ;
#168 = TOROIDAL_SURFACE ( 'NONE', #452, 92.19990804841940246, 89.00000000000001421 ) ;
#169 = CIRCLE ( 'NONE', #471, 10.30000000000000071 ) ;
#170 = CARTESIAN_POINT ( 'NONE',  ( 62.87957061030144246, 10.91842629160311340, 0.000000000000000000 ) ) ;
#171 = EDGE_CURVE ( 'NONE', #7, #15, #137, .T. ) ;
#172 = DIRECTION ( 'NONE',  ( -1.000000000000000000, -2.846147746615054256E-17, -0.000000000000000000 ) ) ;
#173 =( LENGTH_UNIT ( ) NAMED_UNIT ( * ) SI_UNIT ( .MILLI., .METRE. ) );
#174 = ADVANCED_FACE ( 'NONE', ( #54 ), #105, .F. ) ;
#175 = CIRCLE ( 'NONE', #341, 1.689863634793793645 ) ;
#176 = FACE_OUTER_BOUND ( 'NONE', #147, .T. ) ;
#177 = DIRECTION ( 'NONE',  ( 0.000000000000000000, -1.000000000000000000, 0.000000000000000000 ) ) ;
#178 = FACE_BOUND ( 'NONE', #188, .T. ) ;
#179 = ORIENTED_EDGE ( 'NONE', *, *, #509, .F. ) ;
#180 = VERTEX_POINT ( 'NONE', #280 ) ;
#181 = CARTESIAN_POINT ( 'NONE',  ( 44.79991682153976029, 10.91842629160311340, 0.000000000000000000 ) ) ;
#182 = CARTESIAN_POINT ( 'NONE',  ( 27.99943846145029980, -81.28148175681629084, 0.000000000000000000 ) ) ;
#183 = EDGE_CURVE ( 'NONE', #27, #241, #111, .T. ) ;
#184 = DIRECTION ( 'NONE',  ( -1.000000000000000000, 0.000000000000000000, 0.000000000000000000 ) ) ;
#185 = DIRECTION ( 'NONE',  ( -1.000000000000000000, -2.846147746615054256E-17, -0.000000000000000000 ) ) ;
#186 = DIRECTION ( 'NONE',  ( 3.485525727792578152E-33, -1.224646799147353207E-16, 1.000000000000000000 ) ) ;
#187 = ORIENTED_EDGE ( 'NONE', *, *, #171, .T. ) ;
#188 = EDGE_LOOP ( 'NONE', ( #399, #393 ) ) ;
#189 = DIRECTION ( 'NONE',  ( 0.000000000000000000, -1.000000000000000000, 0.000000000000000000 ) ) ;
#190 = CARTESIAN_POINT ( 'NONE',  ( 1.000000000000000000, 0.6184262916031114665, 0.000000000000000000 ) ) ;
#191 = CIRCLE ( 'NONE', #394, 10.91842629160311162 ) ;
#192 = VERTEX_POINT ( 'NONE', #691 ) ;
#193 = DIRECTION ( 'NONE',  ( -1.000000000000000000, -2.846147746615054256E-17, -0.000000000000000000 ) ) ;
#194 = CIRCLE ( 'NONE', #645, 4.000000000000003553 ) ;
#195 = EDGE_CURVE ( 'NONE', #433, #254, #480, .T. ) ;
#196 = CARTESIAN_POINT ( 'NONE',  ( -2.931532179013505902E-16, 21.21842629160311233, 1.261386203121773722E-15 ) ) ;
#197 = ORIENTED_EDGE ( 'NONE', *, *, #410, .T. ) ;
#198 = ADVANCED_FACE ( 'NONE', ( #634 ), #275, .T. ) ;
#199 = DIRECTION ( 'NONE',  ( -1.000000000000000000, -2.846147746615054256E-17, -0.000000000000000000 ) ) ;
#200 = DIRECTION ( 'NONE',  ( -1.000000000000000000, -2.846147746615054256E-17, -0.000000000000000000 ) ) ;
#201 = DIRECTION ( 'NONE',  ( 2.846147746615054256E-17, -1.000000000000000000, 0.000000000000000000 ) ) ;
#202 = DIRECTION ( 'NONE',  ( -1.000000000000000000, -2.846147746615054256E-17, -0.000000000000000000 ) ) ;
#203 = AXIS2_PLACEMENT_3D ( 'NONE', #736, #497, #673 ) ;
#204 = ORIENTED_EDGE ( 'NONE', *, *, #251, .F. ) ;
#205 = EDGE_CURVE ( 'NONE', #684, #15, #215, .T. ) ;
#206 = CIRCLE ( 'NONE', #469, 3.200000000000000622 ) ;
#207 =( NAMED_UNIT ( * ) SI_UNIT ( $, .STERADIAN. ) SOLID_ANGLE_UNIT ( ) );
#208 = VERTEX_POINT ( 'NONE', #458 ) ;
#209 = VERTEX_POINT ( 'NONE', #278 ) ;
#210 = EDGE_CURVE ( 'NONE', #94, #192, #237, .T. ) ;
#211 = AXIS2_PLACEMENT_3D ( 'NONE', #279, #688, #100 ) ;
#212 = DIRECTION ( 'NONE',  ( -1.000000000000000000, -2.846147746615054256E-17, -0.000000000000000000 ) ) ;
#213 = EDGE_LOOP ( 'NONE', ( #558, #21, #633, #244 ) ) ;
#214 = CARTESIAN_POINT ( 'NONE',  ( 0.000000000000000000, 10.91842629160311162, 0.000000000000000000 ) ) ;
#215 = CIRCLE ( 'NONE', #579, 2.913718049689090428 ) ;
#216 = FACE_OUTER_BOUND ( 'NONE', #391, .T. ) ;
#217 = DIRECTION ( 'NONE',  ( -1.000000000000000000, 0.000000000000000000, 0.000000000000000000 ) ) ;
#218 = DIRECTION ( 'NONE',  ( 3.485525727792578152E-33, -1.224646799147353207E-16, 1.000000000000000000 ) ) ;
#219 = ORIENTED_EDGE ( 'NONE', *, *, #430, .F. ) ;
#220 = EDGE_CURVE ( 'NONE', #433, #94, #351, .T. ) ;
#221 = CIRCLE ( 'NONE', #358, 3.199999999999994404 ) ;
#222 = ORIENTED_EDGE ( 'NONE', *, *, #455, .F. ) ;
#223 = DIRECTION ( 'NONE',  ( 0.000000000000000000, 0.000000000000000000, -1.000000000000000000 ) ) ;
#224 = CIRCLE ( 'NONE', #321, 7.078181289931055886 ) ;
#225 = EDGE_CURVE ( 'NONE', #20, #390, #675, .T. ) ;
#226 = DIRECTION ( 'NONE',  ( -1.000000000000000000, -2.846147746615054256E-17, -0.000000000000000000 ) ) ;
#227 = DIRECTION ( 'NONE',  ( 0.000000000000000000, 0.000000000000000000, -1.000000000000000000 ) ) ;
#228 = TOROIDAL_SURFACE ( 'NONE', #368, 4.799999999999997158, 3.199999999999997513 ) ;
#229 = DIRECTION ( 'NONE',  ( 0.000000000000000000, -1.000000000000000000, 0.000000000000000000 ) ) ;
#230 = EDGE_CURVE ( 'NONE', #488, #180, #419, .T. ) ;
#231 = PRODUCT_DEFINITION ( 'UNKNOWN', '', #354, #342 ) ;
#232 = CONICAL_SURFACE ( 'NONE', #328, 1.619207402626452241, 0.6981317007977232425 ) ;
#233 = AXIS2_PLACEMENT_3D ( 'NONE', #288, #126, #301 ) ;
#234 = FACE_OUTER_BOUND ( 'NONE', #266, .T. ) ;
#235 = AXIS2_PLACEMENT_3D ( 'NONE', #639, #398, #465 ) ;
#236 = EDGE_LOOP ( 'NONE', ( #737, #481, #41, #326 ) ) ;
#237 = CIRCLE ( 'NONE', #83, 3.199908048419394913 ) ;
#238 = DIRECTION ( 'NONE',  ( -1.000000000000000000, -2.846147746615054256E-17, -0.000000000000000000 ) ) ;
#239 =( NAMED_UNIT ( * ) PLANE_ANGLE_UNIT ( ) SI_UNIT ( $, .RADIAN. ) );
#240 = CIRCLE ( 'NONE', #203, 2.999999999999995559 ) ;
#241 = VERTEX_POINT ( 'NONE', #409 ) ;
#242 = ORIENTED_EDGE ( 'NONE', *, *, #624, .F. ) ;
#243 = PLANE ( 'NONE',  #567 ) ;
#244 = ORIENTED_EDGE ( 'NONE', *, *, #171, .F. ) ;
#245 = DIRECTION ( 'NONE',  ( -1.000000000000000000, -2.846147746615054256E-17, -0.000000000000000000 ) ) ;
#246 = CARTESIAN_POINT ( 'NONE',  ( 44.79991682153976029, 6.118426291603121570, 0.000000000000000000 ) ) ;
#247 = ORIENTED_EDGE ( 'NONE', *, *, #595, .F. ) ;
#248 = DIRECTION ( 'NONE',  ( -1.000000000000000000, -2.846147746615054256E-17, -0.000000000000000000 ) ) ;
#249 = FACE_OUTER_BOUND ( 'NONE', #334, .T. ) ;
#250 = AXIS2_PLACEMENT_3D ( 'NONE', #311, #652, #540 ) ;
#251 = EDGE_CURVE ( 'NONE', #505, #684, #175, .T. ) ;
#252 = ORIENTED_EDGE ( 'NONE', *, *, #641, .F. ) ;
#253 = DIRECTION ( 'NONE',  ( 2.846147746615054256E-17, -1.000000000000000000, 0.000000000000000000 ) ) ;
#254 = VERTEX_POINT ( 'NONE', #525 ) ;
#255 = APPLICATION_PROTOCOL_DEFINITION ( 'draft international standard', 'automotive_design', 1998, #656 ) ;
#256 = DIRECTION ( 'NONE',  ( 0.000000000000000000, -1.000000000000000000, 0.000000000000000000 ) ) ;
#257 = ORIENTED_EDGE ( 'NONE', *, *, #220, .F. ) ;
#258 = AXIS2_PLACEMENT_3D ( 'NONE', #181, #125, #69 ) ;
#259 = CONICAL_SURFACE ( 'NONE', #609, 1.619207402626452241, 0.6981317007977232425 ) ;
#260 = DIRECTION ( 'NONE',  ( -2.846147746615054256E-17, 1.000000000000000000, 0.000000000000000000 ) ) ;
#261 = PLANE ( 'NONE',  #40 ) ;
#262 = ADVANCED_FACE ( 'NONE', ( #413 ), #646, .T. ) ;
#263 = ORIENTED_EDGE ( 'NONE', *, *, #585, .F. ) ;
#264 = VECTOR ( 'NONE', #238, 1000.000000000000000 ) ;
#265 = ORIENTED_EDGE ( 'NONE', *, *, #731, .T. ) ;
#266 = EDGE_LOOP ( 'NONE', ( #613, #549, #450, #570 ) ) ;
#267 = PRESENTATION_LAYER_ASSIGNMENT (  '', '', ( #39 ) ) ;
#268 = ORIENTED_EDGE ( 'NONE', *, *, #692, .F. ) ;
#269 = VECTOR ( 'NONE', #663, 1000.000000000000114 ) ;
#270 = ORIENTED_EDGE ( 'NONE', *, *, #230, .F. ) ;
#271 = CARTESIAN_POINT ( 'NONE',  ( 59.45715040861292522, 3.840245001672057512, 8.668272060498751948E-16 ) ) ;
#272 = AXIS2_PLACEMENT_3D ( 'NONE', #584, #98, #642 ) ;
#273 = DIRECTION ( 'NONE',  ( 0.000000000000000000, 1.000000000000000000, 0.000000000000000000 ) ) ;
#274 = CARTESIAN_POINT ( 'NONE',  ( 63.48321083858993319, 10.91842629160311340, 0.000000000000000000 ) ) ;
#275 = CONICAL_SURFACE ( 'NONE', #314, 4.000000000000003553, 0.3490658503988696704 ) ;
#276 = ADVANCED_FACE ( 'NONE', ( #348 ), #454, .T. ) ;
#277 = CARTESIAN_POINT ( 'NONE',  ( 60.94987437106620831, 10.91842629160312228, 0.000000000000000000 ) ) ;
#278 = CARTESIAN_POINT ( 'NONE',  ( 50.99991682153975603, 6.918426291603109846, 6.783429628544084360E-16 ) ) ;
#279 = CARTESIAN_POINT ( 'NONE',  ( 61.79334720379613799, 10.91842629160311340, 0.000000000000000000 ) ) ;
#280 = CARTESIAN_POINT ( 'NONE',  ( 4.999999999999999112, 21.83685258320622324, 1.337121580973805631E-15 ) ) ;
#281 = DIRECTION ( 'NONE',  ( 1.000000000000000000, 2.846147746615054256E-17, 0.000000000000000000 ) ) ;
#282 = EDGE_CURVE ( 'NONE', #433, #740, #206, .T. ) ;
#283 = CARTESIAN_POINT ( 'NONE',  ( 61.79334720379613799, 13.83214434129220471, 3.568275483169613336E-16 ) ) ;
#284 = AXIS2_PLACEMENT_3D ( 'NONE', #485, #729, #8 ) ;
#285 = ADVANCED_FACE ( 'NONE', ( #710 ), #232, .F. ) ;
#286 = DIRECTION ( 'NONE',  ( 1.000000000000000000, 2.846147746615054256E-17, 0.000000000000000000 ) ) ;
#287 = AXIS2_PLACEMENT_3D ( 'NONE', #683, #150, #680 ) ;
#288 = CARTESIAN_POINT ( 'NONE',  ( 50.99991682153975603, 10.91842629160311340, 0.000000000000000000 ) ) ;
#289 = SURFACE_STYLE_USAGE ( .BOTH. , #421 ) ;
#290 = ORIENTED_EDGE ( 'NONE', *, *, #595, .T. ) ;
#291 = FACE_OUTER_BOUND ( 'NONE', #236, .T. ) ;
#292 = DIRECTION ( 'NONE',  ( 2.846147746615054256E-17, -1.000000000000000000, 0.000000000000000000 ) ) ;
#293 = AXIS2_PLACEMENT_3D ( 'NONE', #46, #693, #635 ) ;
#294 = DIRECTION ( 'NONE',  ( 2.846147746615054256E-17, -1.000000000000000000, 0.000000000000000000 ) ) ;
#295 = ORIENTED_EDGE ( 'NONE', *, *, #628, .F. ) ;
#296 = ORIENTED_EDGE ( 'NONE', *, *, #18, .F. ) ;
#297 = CIRCLE ( 'NONE', #106, 3.200000000000001510 ) ;
#298 = ORIENTED_EDGE ( 'NONE', *, *, #624, .T. ) ;
#299 = VECTOR ( 'NONE', #498, 1000.000000000000114 ) ;
#300 = DIRECTION ( 'NONE',  ( -1.000000000000000000, -2.846147746615054256E-17, -0.000000000000000000 ) ) ;
#301 = DIRECTION ( 'NONE',  ( 0.000000000000000000, -1.000000000000000000, 0.000000000000000000 ) ) ;
#302 = ORIENTED_EDGE ( 'NONE', *, *, #432, .F. ) ;
#303 = CLOSED_SHELL ( 'NONE', ( #473, #74, #51, #285, #42, #307, #58, #262, #377, #110, #697, #339, #647, #614, #369, #155, #276, #148, #198, #615, #333, #678, #145, #752, #556 ) ) ;
#304 = ORIENTED_EDGE ( 'NONE', *, *, #68, .T. ) ;
#305 = DIRECTION ( 'NONE',  ( -1.000000000000000000, -2.846147746615054256E-17, -0.000000000000000000 ) ) ;
#306 = DIRECTION ( 'NONE',  ( 0.000000000000000000, 0.000000000000000000, -1.000000000000000000 ) ) ;
#307 = ADVANCED_FACE ( 'NONE', ( #353 ), #543, .T. ) ;
#308 = PRODUCT_RELATED_PRODUCT_CATEGORY ( 'part', '', ( #625 ) ) ;
#309 = EDGE_LOOP ( 'NONE', ( #164, #67, #754, #596 ) ) ;
#310 = VERTEX_POINT ( 'NONE', #109 ) ;
#311 = CARTESIAN_POINT ( 'NONE',  ( 60.48321083858993319, 10.91842629160311340, 0.000000000000000000 ) ) ;
#312 = CARTESIAN_POINT ( 'NONE',  ( 63.48321083858993319, 10.91842629160311340, 0.000000000000000000 ) ) ;
#313 = VERTEX_POINT ( 'NONE', #418 ) ;
#314 = AXIS2_PLACEMENT_3D ( 'NONE', #580, #50, #43 ) ;
#315 = CARTESIAN_POINT ( 'NONE',  ( -2.276918197292042419E-16, 18.91842629160310807, 9.797174393178821713E-16 ) ) ;
#316 = EDGE_LOOP ( 'NONE', ( #457, #636, #257, #722 ) ) ;
#317 = EDGE_CURVE ( 'NONE', #313, #519, #741, .T. ) ;
#318 = AXIS2_PLACEMENT_3D ( 'NONE', #537, #423, #121 ) ;
#319 = CARTESIAN_POINT ( 'NONE',  ( 50.99991682153975603, 2.918426291603114731, 0.000000000000000000 ) ) ;
#320 = ORIENTED_EDGE ( 'NONE', *, *, #346, .F. ) ;
#321 = AXIS2_PLACEMENT_3D ( 'NONE', #611, #536, #550 ) ;
#322 = BREP_WITH_VOIDS ( 'NONE', #303, ( #149 ) );
#323 = FACE_OUTER_BOUND ( 'NONE', #746, .T. ) ;
#324 = ORIENTED_EDGE ( 'NONE', *, *, #346, .T. ) ;
#325 = CIRCLE ( 'NONE', #601, 10.91842629160311162 ) ;
#326 = ORIENTED_EDGE ( 'NONE', *, *, #397, .F. ) ;
#327 = ORIENTED_EDGE ( 'NONE', *, *, #195, .T. ) ;
#328 = AXIS2_PLACEMENT_3D ( 'NONE', #170, #286, #706 ) ;
#329 = ORIENTED_EDGE ( 'NONE', *, *, #503, .T. ) ;
#330 = DIRECTION ( 'NONE',  ( 2.846147746615054256E-17, -1.000000000000000000, 0.000000000000000000 ) ) ;
#331 = CIRCLE ( 'NONE', #436, 10.30000000000000071 ) ;
#332 = EDGE_LOOP ( 'NONE', ( #327, #689, #242, #666 ) ) ;
#333 = ADVANCED_FACE ( 'NONE', ( #178, #113 ), #116, .T. ) ;
#334 = EDGE_LOOP ( 'NONE', ( #507, #690, #296, #222 ) ) ;
#335 = CARTESIAN_POINT ( 'NONE',  ( 61.79334720379613799, 8.004708241914022082, 0.000000000000000000 ) ) ;
#336 = CIRCLE ( 'NONE', #293, 7.918426291603112510 ) ;
#337 = FACE_OUTER_BOUND ( 'NONE', #316, .T. ) ;
#338 = EDGE_LOOP ( 'NONE', ( #247, #545, #388, #619 ) ) ;
#339 = ADVANCED_FACE ( 'NONE', ( #61 ), #705, .T. ) ;
#340 = CARTESIAN_POINT ( 'NONE',  ( 11.19896010136081621, 10.91842629160311162, 0.000000000000000000 ) ) ;
#341 = AXIS2_PLACEMENT_3D ( 'NONE', #283, #761, #167 ) ;
#342 = PRODUCT_DEFINITION_CONTEXT ( 'detailed design', #699, 'design' ) ;
#343 = CARTESIAN_POINT ( 'NONE',  ( 59.45715040861292522, 17.99660758153417106, 0.000000000000000000 ) ) ;
#344 = VECTOR ( 'NONE', #199, 1000.000000000000000 ) ;
#345 = DIRECTION ( 'NONE',  ( 2.846147746615054256E-17, -1.000000000000000000, 0.000000000000000000 ) ) ;
#346 = EDGE_CURVE ( 'NONE', #627, #209, #194, .T. ) ;
#347 = CYLINDRICAL_SURFACE ( 'NONE', #235, 10.91842629160311162 ) ;
#348 = FACE_OUTER_BOUND ( 'NONE', #6, .T. ) ;
#349 = EDGE_CURVE ( 'NONE', #209, #151, #415, .T. ) ;
#350 = CARTESIAN_POINT ( 'NONE',  ( 60.48321083858993319, 10.91842629160311340, 0.000000000000000000 ) ) ;
#351 = CIRCLE ( 'NONE', #651, 89.00000000000001421 ) ;
#352 = LINE ( 'NONE', #591, #131 ) ;
#353 = FACE_OUTER_BOUND ( 'NONE', #118, .T. ) ;
#354 = PRODUCT_DEFINITION_FORMATION_WITH_SPECIFIED_SOURCE ( 'ANY', '', #625, .NOT_KNOWN. ) ;
#355 = CARTESIAN_POINT ( 'NONE',  ( 8.000000000000003553, 10.91842629160311162, 0.000000000000000000 ) ) ;
#356 = DIRECTION ( 'NONE',  ( -1.000000000000000000, -2.846147746615054256E-17, -0.000000000000000000 ) ) ;
#357 = CARTESIAN_POINT ( 'NONE',  ( 63.48321083858993319, 5.939340987919556285E-33, 0.000000000000000000 ) ) ;
#358 = AXIS2_PLACEMENT_3D ( 'NONE', #56, #716, #664 ) ;
#359 = ORIENTED_EDGE ( 'NONE', *, *, #491, .T. ) ;
#360 = AXIS2_PLACEMENT_3D ( 'NONE', #362, #300, #546 ) ;
#361 = EDGE_LOOP ( 'NONE', ( #263, #669, #512, #302 ) ) ;
#362 = CARTESIAN_POINT ( 'NONE',  ( 8.000000000000003553, 10.91842629160311162, 0.000000000000000000 ) ) ;
#363 = DIRECTION ( 'NONE',  ( -1.000000000000000000, -2.846147746615054256E-17, -0.000000000000000000 ) ) ;
#364 = DIRECTION ( 'NONE',  ( 2.846147746615054256E-17, -1.000000000000000000, 0.000000000000000000 ) ) ;
#365 = ORIENTED_EDGE ( 'NONE', *, *, #539, .F. ) ;
#366 = DIRECTION ( 'NONE',  ( -1.000000000000000000, -2.846147746615054256E-17, -0.000000000000000000 ) ) ;
#367 = DIRECTION ( 'NONE',  ( -1.000000000000000000, -2.846147746615054256E-17, -0.000000000000000000 ) ) ;
#368 = AXIS2_PLACEMENT_3D ( 'NONE', #23, #356, #603 ) ;
#369 = ADVANCED_FACE ( 'NONE', ( #713 ), #168, .F. ) ;
#370 = AXIS2_PLACEMENT_3D ( 'NONE', #657, #123, #364 ) ;
#371 = VERTEX_POINT ( 'NONE', #190 ) ;
#372 = LINE ( 'NONE', #22, #510 ) ;
#373 = DIRECTION ( 'NONE',  ( -1.000000000000000000, -2.846147746615054256E-17, -0.000000000000000000 ) ) ;
#374 = VECTOR ( 'NONE', #551, 1000.000000000000000 ) ;
#375 = AXIS2_PLACEMENT_3D ( 'NONE', #138, #141, #260 ) ;
#376 = ORIENTED_EDGE ( 'NONE', *, *, #230, .T. ) ;
#377 = ADVANCED_FACE ( 'NONE', ( #249 ), #228, .T. ) ;
#378 = ORIENTED_EDGE ( 'NONE', *, *, #44, .T. ) ;
#379 = CARTESIAN_POINT ( 'NONE',  ( 27.99943846145030690, 10.91842629160311162, 0.000000000000000000 ) ) ;
#380 = CARTESIAN_POINT ( 'NONE',  ( 3.499999999999999112, 21.21842629160311233, 1.261386203121773722E-15 ) ) ;
#381 = CARTESIAN_POINT ( 'NONE',  ( 63.48321083858993319, 8.004708241914022082, 0.000000000000000000 ) ) ;
#382 = AXIS2_PLACEMENT_3D ( 'NONE', #335, #227, #217 ) ;
#383 = CYLINDRICAL_SURFACE ( 'NONE', #744, 10.30000000000000071 ) ;
#384 = DIRECTION ( 'NONE',  ( -1.000000000000000000, -2.846147746615054256E-17, -0.000000000000000000 ) ) ;
#385 = CARTESIAN_POINT ( 'NONE',  ( 44.79991682153976029, 10.91842629160311340, 0.000000000000000000 ) ) ;
#386 = AXIS2_PLACEMENT_3D ( 'NONE', #396, #165, #631 ) ;
#387 = DIRECTION ( 'NONE',  ( 0.000000000000000000, -1.000000000000000000, -1.224646799147352961E-16 ) ) ;
#388 = ORIENTED_EDGE ( 'NONE', *, *, #703, .T. ) ;
#389 = DIRECTION ( 'NONE',  ( -1.000000000000000000, -2.846147746615054256E-17, -0.000000000000000000 ) ) ;
#390 = VERTEX_POINT ( 'NONE', #9 ) ;
#391 = EDGE_LOOP ( 'NONE', ( #451, #727 ) ) ;
#392 = EDGE_LOOP ( 'NONE', ( #298, #425, #270, #252 ) ) ;
#393 = ORIENTED_EDGE ( 'NONE', *, *, #205, .T. ) ;
#394 = AXIS2_PLACEMENT_3D ( 'NONE', #719, #248, #428 ) ;
#395 = ORIENTED_EDGE ( 'NONE', *, *, #317, .T. ) ;
#396 = CARTESIAN_POINT ( 'NONE',  ( 5.000000000000000000, 10.91842629160311162, 0.000000000000000000 ) ) ;
#397 = EDGE_CURVE ( 'NONE', #180, #488, #467, .T. ) ;
#398 = DIRECTION ( 'NONE',  ( -1.000000000000000000, -2.846147746615054256E-17, -0.000000000000000000 ) ) ;
#399 = ORIENTED_EDGE ( 'NONE', *, *, #475, .T. ) ;
#400 = ORIENTED_EDGE ( 'NONE', *, *, #731, .F. ) ;
#401 = DIRECTION ( 'NONE',  ( -1.000000000000000000, -2.846147746615054256E-17, -0.000000000000000000 ) ) ;
#402 = EDGE_CURVE ( 'NONE', #694, #371, #66, .T. ) ;
#403 = FACE_OUTER_BOUND ( 'NONE', #309, .T. ) ;
#404 = EDGE_LOOP ( 'NONE', ( #501, #304, #438, #661 ) ) ;
#405 = DIRECTION ( 'NONE',  ( 0.000000000000000000, -1.000000000000000000, 0.000000000000000000 ) ) ;
#406 = CIRCLE ( 'NONE', #502, 89.00000000000001421 ) ;
#407 = CARTESIAN_POINT ( 'NONE',  ( 50.99991682153975603, 10.91842629160311340, 0.000000000000000000 ) ) ;
#408 = ORIENTED_EDGE ( 'NONE', *, *, #513, .T. ) ;
#409 = CARTESIAN_POINT ( 'NONE',  ( 47.99991682153975603, 18.91842629160311162, 9.797174393178821713E-16 ) ) ;
#410 = EDGE_CURVE ( 'NONE', #254, #433, #662, .T. ) ;
#411 = UNCERTAINTY_MEASURE_WITH_UNIT (LENGTH_MEASURE( 1.000000000000000082E-05 ), #738, 'distance_accuracy_value', 'NONE');
#412 = DIRECTION ( 'NONE',  ( 0.000000000000000000, -1.000000000000000000, 0.000000000000000000 ) ) ;
#413 = FACE_OUTER_BOUND ( 'NONE', #610, .T. ) ;
#414 = COLOUR_RGB ( '',0.7921568627450980005, 0.8196078431372548767, 0.9333333333333333481 ) ;
#415 = LINE ( 'NONE', #468, #299 ) ;
#416 = CIRCLE ( 'NONE', #548, 4.799999999999996270 ) ;
#417 = CARTESIAN_POINT ( 'NONE',  ( 11.19896010136081621, 6.118426291603111800, 0.000000000000000000 ) ) ;
#418 = CARTESIAN_POINT ( 'NONE',  ( 50.99991682153975603, 18.91842629160311162, 9.797174393178821713E-16 ) ) ;
#419 = CIRCLE ( 'NONE', #386, 10.91842629160311162 ) ;
#420 = PLANE ( 'NONE',  #375 ) ;
#421 = SURFACE_SIDE_STYLE ('',( #4 ) ) ;
#422 = CARTESIAN_POINT ( 'NONE',  ( 3.500000000000000000, 0.6184262916031114665, 0.000000000000000000 ) ) ;
#423 = DIRECTION ( 'NONE',  ( -1.000000000000000000, -2.846147746615054256E-17, -0.000000000000000000 ) ) ;
#424 = AXIS2_PLACEMENT_3D ( 'NONE', #182, #306, #486 ) ;
#425 = ORIENTED_EDGE ( 'NONE', *, *, #479, .T. ) ;
#426 = CIRCLE ( 'NONE', #258, 4.799999999999996270 ) ;
#427 = ORIENTED_EDGE ( 'NONE', *, *, #528, .F. ) ;
#428 = DIRECTION ( 'NONE',  ( 2.846147746615054256E-17, -1.000000000000000000, 0.000000000000000000 ) ) ;
#429 = DIRECTION ( 'NONE',  ( 0.000000000000000000, -1.000000000000000000, -1.224646799147353700E-16 ) ) ;
#430 = EDGE_CURVE ( 'NONE', #742, #38, #325, .T. ) ;
#431 = CARTESIAN_POINT ( 'NONE',  ( 50.99991682153975603, 14.91842629160311695, 0.000000000000000000 ) ) ;
#432 = EDGE_CURVE ( 'NONE', #79, #151, #704, .T. ) ;
#433 = VERTEX_POINT ( 'NONE', #417 ) ;
#434 = CARTESIAN_POINT ( 'NONE',  ( 62.87957061030144246, 10.91842629160311340, 0.000000000000000000 ) ) ;
#435 = DIRECTION ( 'NONE',  ( 0.000000000000000000, -1.000000000000000000, -1.224646799147352961E-16 ) ) ;
#436 = AXIS2_PLACEMENT_3D ( 'NONE', #28, #681, #732 ) ;
#437 = LINE ( 'NONE', #90, #668 ) ;
#438 = ORIENTED_EDGE ( 'NONE', *, *, #692, .T. ) ;
#439 = CIRCLE ( 'NONE', #672, 89.00000000000001421 ) ;
#440 = DIRECTION ( 'NONE',  ( 3.485525727792578152E-33, -1.224646799147353207E-16, 1.000000000000000000 ) ) ;
#441 = DIRECTION ( 'NONE',  ( 0.000000000000000000, -1.000000000000000000, 0.000000000000000000 ) ) ;
#442 = AXIS2_PLACEMENT_3D ( 'NONE', #142, #26, #387 ) ;
#443 =( NAMED_UNIT ( * ) PLANE_ANGLE_UNIT ( ) SI_UNIT ( $, .RADIAN. ) );
#444 = DIRECTION ( 'NONE',  ( -2.846147746615054256E-17, 1.000000000000000000, 0.000000000000000000 ) ) ;
#445 = EDGE_LOOP ( 'NONE', ( #685, #86, #682, #563 ) ) ;
#446 = ORIENTED_EDGE ( 'NONE', *, *, #564, .T. ) ;
#447 = ORIENTED_EDGE ( 'NONE', *, *, #509, .T. ) ;
#448 = FACE_OUTER_BOUND ( 'NONE', #128, .T. ) ;
#449 = ADVANCED_FACE ( 'NONE', ( #5 ), #243, .F. ) ;
#450 = ORIENTED_EDGE ( 'NONE', *, *, #93, .F. ) ;
#451 = ORIENTED_EDGE ( 'NONE', *, *, #491, .F. ) ;
#452 = AXIS2_PLACEMENT_3D ( 'NONE', #477, #373, #598 ) ;
#453 = ORIENTED_EDGE ( 'NONE', *, *, #455, .T. ) ;
#454 = CYLINDRICAL_SURFACE ( 'NONE', #665, 7.999999999999996447 ) ;
#455 = EDGE_CURVE ( 'NONE', #27, #496, #221, .T. ) ;
#456 = FACE_OUTER_BOUND ( 'NONE', #152, .T. ) ;
#457 = ORIENTED_EDGE ( 'NONE', *, *, #93, .T. ) ;
#458 = CARTESIAN_POINT ( 'NONE',  ( 8.000000000000003553, 18.83685258320622324, 1.153424561101702908E-15 ) ) ;
#459 = CIRCLE ( 'NONE', #117, 2.913718049689090428 ) ;
#460 = FACE_OUTER_BOUND ( 'NONE', #213, .T. ) ;
#461 = EDGE_CURVE ( 'NONE', #94, #496, #30, .T. ) ;
#462 = ORIENTED_EDGE ( 'NONE', *, *, #748, .F. ) ;
#463 = CARTESIAN_POINT ( 'NONE',  ( 27.99943846145030690, 10.91842629160311162, 0.000000000000000000 ) ) ;
#464 = TOROIDAL_SURFACE ( 'NONE', #760, 7.918426291603112510, 3.000000000000000444 ) ;
#465 = DIRECTION ( 'NONE',  ( 2.846147746615054256E-17, -1.000000000000000000, 0.000000000000000000 ) ) ;
#466 = DIRECTION ( 'NONE',  ( -1.000000000000000000, -2.846147746615054256E-17, -0.000000000000000000 ) ) ;
#467 = CIRCLE ( 'NONE', #2, 10.91842629160311162 ) ;
#468 = CARTESIAN_POINT ( 'NONE',  ( 50.99991682153975603, 6.918426291603109846, 4.898587196589417759E-16 ) ) ;
#469 = AXIS2_PLACEMENT_3D ( 'NONE', #154, #572, #184 ) ;
#470 = CIRCLE ( 'NONE', #571, 7.999999999999998224 ) ;
#471 = AXIS2_PLACEMENT_3D ( 'NONE', #16, #245, #80 ) ;
#472 = CARTESIAN_POINT ( 'NONE',  ( 50.99991682153975603, 10.91842629160311340, 0.000000000000000000 ) ) ;
#473 = ADVANCED_FACE ( 'NONE', ( #234 ), #89, .F. ) ;
#474 = TOROIDAL_SURFACE ( 'NONE', #272, 4.799999999999997158, 3.199999999999997513 ) ;
#475 = EDGE_CURVE ( 'NONE', #15, #684, #459, .T. ) ;
#476 = DIRECTION ( 'NONE',  ( 0.7660444431189835646, 0.6427876096865328126, 0.000000000000000000 ) ) ;
#477 = CARTESIAN_POINT ( 'NONE',  ( 27.99943846145029624, 10.91842629160311162, 0.000000000000000000 ) ) ;
#478 =( NAMED_UNIT ( * ) SI_UNIT ( $, .STERADIAN. ) SOLID_ANGLE_UNIT ( ) );
#479 = EDGE_CURVE ( 'NONE', #208, #180, #654, .T. ) ;
#480 = CIRCLE ( 'NONE', #616, 4.799999999999999822 ) ;
#481 = ORIENTED_EDGE ( 'NONE', *, *, #62, .T. ) ;
#482 = ORIENTED_EDGE ( 'NONE', *, *, #588, .F. ) ;
#483 = FACE_OUTER_BOUND ( 'NONE', #535, .T. ) ;
#484 = CARTESIAN_POINT ( 'NONE',  ( 1.000000000000000222, 4.672746594982906965E-33, 0.000000000000000000 ) ) ;
#485 = CARTESIAN_POINT ( 'NONE',  ( 8.000000000000003553, 10.91842629160311162, 0.000000000000000000 ) ) ;
#486 = DIRECTION ( 'NONE',  ( -1.000000000000000000, 0.000000000000000000, 0.000000000000000000 ) ) ;
#487 = EDGE_CURVE ( 'NONE', #371, #733, #757, .T. ) ;
#488 = VERTEX_POINT ( 'NONE', #70 ) ;
#489 = CARTESIAN_POINT ( 'NONE',  ( 5.000000000000002665, 2.999999999999999112, 0.000000000000000000 ) ) ;
#490 = DIRECTION ( 'NONE',  ( 0.000000000000000000, -1.000000000000000000, 0.000000000000000000 ) ) ;
#491 = EDGE_CURVE ( 'NONE', #519, #313, #96, .T. ) ;
#492 = EDGE_LOOP ( 'NONE', ( #408, #290 ) ) ;
#493 = TOROIDAL_SURFACE ( 'NONE', #250, 4.259103427573334599, 2.999999999999995559 ) ;
#494 = CARTESIAN_POINT ( 'NONE',  ( 8.000000000000003553, 2.999999999999999112, 0.000000000000000000 ) ) ;
#495 = FACE_OUTER_BOUND ( 'NONE', #91, .T. ) ;
#496 = VERTEX_POINT ( 'NONE', #246 ) ;
#497 = DIRECTION ( 'NONE',  ( 0.000000000000000000, 0.000000000000000000, -1.000000000000000000 ) ) ;
#498 = DIRECTION ( 'NONE',  ( 0.9396926207859069846, -0.3420201433256722656, 4.188538737677034289E-17 ) ) ;
#499 = PRODUCT_CONTEXT ( 'NONE', #656, 'mechanical' ) ;
#500 = CARTESIAN_POINT ( 'NONE',  ( 47.99991682153975603, 10.91842629160311340, 0.000000000000000000 ) ) ;
#501 = ORIENTED_EDGE ( 'NONE', *, *, #620, .F. ) ;
#502 = AXIS2_PLACEMENT_3D ( 'NONE', #49, #218, #157 ) ;
#503 = EDGE_CURVE ( 'NONE', #519, #27, #607, .T. ) ;
#504 = DIRECTION ( 'NONE',  ( 0.000000000000000000, -1.000000000000000000, 0.000000000000000000 ) ) ;
#505 = VERTEX_POINT ( 'NONE', #649 ) ;
#506 =( GEOMETRIC_REPRESENTATION_CONTEXT ( 3 ) GLOBAL_UNCERTAINTY_ASSIGNED_CONTEXT ( ( #521 ) ) GLOBAL_UNIT_ASSIGNED_CONTEXT ( ( #173, #239, #478 ) ) REPRESENTATION_CONTEXT ( 'NONE', 'WORKASPACE' ) );
#507 = ORIENTED_EDGE ( 'NONE', *, *, #183, .T. ) ;
#508 = ORIENTED_EDGE ( 'NONE', *, *, #183, .F. ) ;
#509 = EDGE_CURVE ( 'NONE', #101, #7, #352, .T. ) ;
#510 = VECTOR ( 'NONE', #193, 1000.000000000000000 ) ;
#511 = CIRCLE ( 'NONE', #19, 4.000000000000003553 ) ;
#512 = ORIENTED_EDGE ( 'NONE', *, *, #560, .T. ) ;
#513 = EDGE_CURVE ( 'NONE', #694, #518, #331, .T. ) ;
#514 = DIRECTION ( 'NONE',  ( -1.000000000000000000, -2.846147746615054256E-17, -0.000000000000000000 ) ) ;
#515 = DIRECTION ( 'NONE',  ( 0.000000000000000000, -1.000000000000000000, -1.224646799147352961E-16 ) ) ;
#516 = DIRECTION ( 'NONE',  ( -1.000000000000000000, -2.846147746615054256E-17, -0.000000000000000000 ) ) ;
#517 = CARTESIAN_POINT ( 'NONE',  ( 0.000000000000000000, 0.000000000000000000, 0.000000000000000000 ) ) ;
#518 = VERTEX_POINT ( 'NONE', #380 ) ;
#519 = VERTEX_POINT ( 'NONE', #319 ) ;
#520 = CARTESIAN_POINT ( 'NONE',  ( 27.99943846145029980, -81.28148175681629084, 0.000000000000000000 ) ) ;
#521 = UNCERTAINTY_MEASURE_WITH_UNIT (LENGTH_MEASURE( 1.000000000000000082E-05 ), #173, 'distance_accuracy_value', 'NONE');
#522 = DIRECTION ( 'NONE',  ( -1.000000000000000000, -2.846147746615054256E-17, -0.000000000000000000 ) ) ;
#523 = CARTESIAN_POINT ( 'NONE',  ( 47.99991682153975603, 10.91842629160311340, 0.000000000000000000 ) ) ;
#524 = DIRECTION ( 'NONE',  ( 0.000000000000000000, 1.000000000000000000, 0.000000000000000000 ) ) ;
#525 = CARTESIAN_POINT ( 'NONE',  ( 11.19896010136081621, 15.71842629160311056, 7.787790024101647050E-16 ) ) ;
#526 = CIRCLE ( 'NONE', #687, 10.30000000000000071 ) ;
#527 = PRESENTATION_STYLE_ASSIGNMENT (( #289 ) ) ;
#528 = EDGE_CURVE ( 'NONE', #241, #27, #470, .T. ) ;
#529 = AXIS2_PLACEMENT_3D ( 'NONE', #357, #599, #594 ) ;
#530 = VECTOR ( 'NONE', #85, 1000.000000000000000 ) ;
#531 = CARTESIAN_POINT ( 'NONE',  ( 5.000000000000000000, 10.91842629160311162, 0.000000000000000000 ) ) ;
#532 = EDGE_CURVE ( 'NONE', #518, #733, #561, .T. ) ;
#533 = TOROIDAL_SURFACE ( 'NONE', #63, 92.19990804841940246, 89.00000000000001421 ) ;
#534 = ORIENTED_EDGE ( 'NONE', *, *, #539, .T. ) ;
#535 = EDGE_LOOP ( 'NONE', ( #204, #88, #187, #569 ) ) ;
#536 = DIRECTION ( 'NONE',  ( -1.000000000000000000, -2.846147746615054256E-17, -0.000000000000000000 ) ) ;
#537 = CARTESIAN_POINT ( 'NONE',  ( 27.99943846145029624, 10.91842629160311162, 0.000000000000000000 ) ) ;
#538 = FILL_AREA_STYLE_COLOUR ( '', #414 ) ;
#539 = EDGE_CURVE ( 'NONE', #488, #38, #437, .T. ) ;
#540 = DIRECTION ( 'NONE',  ( 2.846147746615054256E-17, -1.000000000000000000, 0.000000000000000000 ) ) ;
#541 = CARTESIAN_POINT ( 'NONE',  ( 59.45715040861292522, 10.91842629160311340, 0.000000000000000000 ) ) ;
#542 = AXIS2_PLACEMENT_3D ( 'NONE', #312, #139, #504 ) ;
#543 = TOROIDAL_SURFACE ( 'NONE', #3, 4.259103427573334599, 2.999999999999995559 ) ;
#544 = ORIENTED_EDGE ( 'NONE', *, *, #432, .T. ) ;
#545 = ORIENTED_EDGE ( 'NONE', *, *, #532, .T. ) ;
#546 = DIRECTION ( 'NONE',  ( 2.846147746615054256E-17, -1.000000000000000000, 0.000000000000000000 ) ) ;
#547 = CARTESIAN_POINT ( 'NONE',  ( 11.19896010136081621, 10.91842629160311162, 0.000000000000000000 ) ) ;
#548 = AXIS2_PLACEMENT_3D ( 'NONE', #385, #200, #441 ) ;
#549 = ORIENTED_EDGE ( 'NONE', *, *, #210, .T. ) ;
#550 = DIRECTION ( 'NONE',  ( 0.000000000000000000, -1.000000000000000000, 0.000000000000000000 ) ) ;
#551 = DIRECTION ( 'NONE',  ( -1.000000000000000000, -2.846147746615054256E-17, -0.000000000000000000 ) ) ;
#552 = AXIS2_PLACEMENT_3D ( 'NONE', #695, #466, #345 ) ;
#553 = LINE ( 'NONE', #25, #708 ) ;
#554 = CARTESIAN_POINT ( 'NONE',  ( 60.48321083858993319, 15.17752971917644800, 5.215897379815205083E-16 ) ) ;
#555 = ORIENTED_EDGE ( 'NONE', *, *, #68, .F. ) ;
#556 = ADVANCED_FACE ( 'NONE', ( #323 ), #81, .T. ) ;
#557 = CARTESIAN_POINT ( 'NONE',  ( 8.000000000000003553, 15.63685258320622218, 5.778405655024465484E-16 ) ) ;
#558 = ORIENTED_EDGE ( 'NONE', *, *, #124, .T. ) ;
#559 = AXIS2_PLACEMENT_3D ( 'NONE', #720, #186, #429 ) ;
#560 = EDGE_CURVE ( 'NONE', #390, #151, #240, .T. ) ;
#561 = LINE ( 'NONE', #196, #530 ) ;
#562 = CIRCLE ( 'NONE', #122, 3.000000000000000444 ) ;
#563 = ORIENTED_EDGE ( 'NONE', *, *, #487, .T. ) ;
#564 = EDGE_CURVE ( 'NONE', #390, #20, #643, .T. ) ;
#565 = EDGE_LOOP ( 'NONE', ( #140, #640, #64, #555 ) ) ;
#566 = EDGE_LOOP ( 'NONE', ( #630, #714 ) ) ;
#567 = AXIS2_PLACEMENT_3D ( 'NONE', #484, #60, #292 ) ;
#568 = EDGE_CURVE ( 'NONE', #254, #208, #297, .T. ) ;
#569 = ORIENTED_EDGE ( 'NONE', *, *, #205, .F. ) ;
#570 = ORIENTED_EDGE ( 'NONE', *, *, #195, .F. ) ;
#571 = AXIS2_PLACEMENT_3D ( 'NONE', #500, #202, #256 ) ;
#572 = DIRECTION ( 'NONE',  ( 0.000000000000000000, 0.000000000000000000, -1.000000000000000000 ) ) ;
#573 = FACE_BOUND ( 'NONE', #600, .T. ) ;
#574 = CIRCLE ( 'NONE', #162, 1.619207402626452241 ) ;
#575 = ORIENTED_EDGE ( 'NONE', *, *, #748, .T. ) ;
#576 = PLANE ( 'NONE',  #99 ) ;
#577 = DIRECTION ( 'NONE',  ( -1.000000000000000000, -2.846147746615054256E-17, -0.000000000000000000 ) ) ;
#578 = EDGE_LOOP ( 'NONE', ( #743, #320, #721, #544 ) ) ;
#579 = AXIS2_PLACEMENT_3D ( 'NONE', #274, #516, #751 ) ;
#580 = CARTESIAN_POINT ( 'NONE',  ( 50.99991682153975603, 10.91842629160311340, 0.000000000000000000 ) ) ;
#581 = EDGE_CURVE ( 'NONE', #313, #241, #618, .T. ) ;
#582 = CIRCLE ( 'NONE', #442, 3.199999999999997957 ) ;
#583 = CARTESIAN_POINT ( 'NONE',  ( 27.99943846145030690, 7.718518243183717153, 0.000000000000000000 ) ) ;
#584 = CARTESIAN_POINT ( 'NONE',  ( 47.99991682153975603, 10.91842629160311340, 0.000000000000000000 ) ) ;
#585 = EDGE_CURVE ( 'NONE', #20, #79, #143, .T. ) ;
#586 = CARTESIAN_POINT ( 'NONE',  ( 27.99943846145029624, 10.91842629160311162, 0.000000000000000000 ) ) ;
#587 = CARTESIAN_POINT ( 'NONE',  ( 0.000000000000000000, 10.91842629160311162, 0.000000000000000000 ) ) ;
#588 = EDGE_CURVE ( 'NONE', #241, #310, #582, .T. ) ;
#589 = CIRCLE ( 'NONE', #726, 3.199908048419394913 ) ;
#590 = ADVANCED_FACE ( 'NONE', ( #622 ), #261, .F. ) ;
#591 = CARTESIAN_POINT ( 'NONE',  ( 62.87957061030144246, 9.299218888976660935, 1.982957162782184124E-16 ) ) ;
#592 = FACE_OUTER_BOUND ( 'NONE', #361, .T. ) ;
#593 = DIRECTION ( 'NONE',  ( 0.000000000000000000, -1.000000000000000000, 0.000000000000000000 ) ) ;
#594 = DIRECTION ( 'NONE',  ( -2.846147746615054256E-17, 1.000000000000000000, 0.000000000000000000 ) ) ;
#595 = EDGE_CURVE ( 'NONE', #518, #694, #526, .T. ) ;
#596 = ORIENTED_EDGE ( 'NONE', *, *, #725, .F. ) ;
#597 = FACE_OUTER_BOUND ( 'NONE', #332, .T. ) ;
#598 = DIRECTION ( 'NONE',  ( 2.846147746615054256E-17, -1.000000000000000000, 0.000000000000000000 ) ) ;
#599 = DIRECTION ( 'NONE',  ( 1.000000000000000000, 2.846147746615054256E-17, 0.000000000000000000 ) ) ;
#600 = EDGE_LOOP ( 'NONE', ( #324, #378 ) ) ;
#601 = AXIS2_PLACEMENT_3D ( 'NONE', #14, #653, #115 ) ;
#602 = CARTESIAN_POINT ( 'NONE',  ( 61.79334720379613799, 10.91842629160311340, 0.000000000000000000 ) ) ;
#603 = DIRECTION ( 'NONE',  ( 2.846147746615054256E-17, -1.000000000000000000, 0.000000000000000000 ) ) ;
#604 = AXIS2_PLACEMENT_3D ( 'NONE', #472, #10, #650 ) ;
#605 = ORIENTED_EDGE ( 'NONE', *, *, #667, .F. ) ;
#606 = CARTESIAN_POINT ( 'NONE',  ( 0.9999999999999995559, 21.21842629160311233, 1.261386203121773722E-15 ) ) ;
#607 = LINE ( 'NONE', #77, #374 ) ;
#608 = AXIS2_PLACEMENT_3D ( 'NONE', #434, #723, #189 ) ;
#609 = AXIS2_PLACEMENT_3D ( 'NONE', #53, #281, #524 ) ;
#610 = EDGE_LOOP ( 'NONE', ( #359, #153, #508, #34 ) ) ;
#611 = CARTESIAN_POINT ( 'NONE',  ( 59.45715040861292522, 10.91842629160311340, 0.000000000000000000 ) ) ;
#612 = DIRECTION ( 'NONE',  ( -1.000000000000000000, -2.846147746615054256E-17, -0.000000000000000000 ) ) ;
#613 = ORIENTED_EDGE ( 'NONE', *, *, #220, .T. ) ;
#614 = ADVANCED_FACE ( 'NONE', ( #495 ), #156, .T. ) ;
#615 = ADVANCED_FACE ( 'NONE', ( #592 ), #493, .T. ) ;
#616 = AXIS2_PLACEMENT_3D ( 'NONE', #340, #102, #756 ) ;
#617 = CARTESIAN_POINT ( 'NONE',  ( 0.000000000000000000, 10.91842629160311162, 0.000000000000000000 ) ) ;
#618 = LINE ( 'NONE', #315, #344 ) ;
#619 = ORIENTED_EDGE ( 'NONE', *, *, #402, .F. ) ;
#620 = EDGE_CURVE ( 'NONE', #192, #94, #589, .T. ) ;
#621 = SHAPE_DEFINITION_REPRESENTATION ( #31, #133 ) ;
#622 = FACE_OUTER_BOUND ( 'NONE', #492, .T. ) ;
#623 = ORIENTED_EDGE ( 'NONE', *, *, #560, .F. ) ;
#624 = EDGE_CURVE ( 'NONE', #740, #208, #629, .T. ) ;
#625 = PRODUCT ( 'KingQueen', 'KingQueen', '', ( #499 ) ) ;
#626 = DIRECTION ( 'NONE',  ( 3.485525727792578152E-33, -1.224646799147353207E-16, 1.000000000000000000 ) ) ;
#627 = VERTEX_POINT ( 'NONE', #76 ) ;
#628 = EDGE_CURVE ( 'NONE', #38, #742, #191, .T. ) ;
#629 = CIRCLE ( 'NONE', #284, 7.918426291603112510 ) ;
#630 = ORIENTED_EDGE ( 'NONE', *, *, #564, .F. ) ;
#631 = DIRECTION ( 'NONE',  ( 0.000000000000000000, -1.000000000000000000, 0.000000000000000000 ) ) ;
#632 = DIRECTION ( 'NONE',  ( -1.000000000000000000, -2.846147746615054256E-17, -0.000000000000000000 ) ) ;
#633 = ORIENTED_EDGE ( 'NONE', *, *, #475, .F. ) ;
#634 = FACE_OUTER_BOUND ( 'NONE', #578, .T. ) ;
#635 = DIRECTION ( 'NONE',  ( 0.000000000000000000, -1.000000000000000000, 0.000000000000000000 ) ) ;
#636 = ORIENTED_EDGE ( 'NONE', *, *, #620, .T. ) ;
#637 = AXIS2_PLACEMENT_3D ( 'NONE', #750, #644, #273 ) ;
#638 = CARTESIAN_POINT ( 'NONE',  ( 50.99991682153975603, 3.984199250360141637E-33, 0.000000000000000000 ) ) ;
#639 = CARTESIAN_POINT ( 'NONE',  ( 0.000000000000000000, 10.91842629160311162, 0.000000000000000000 ) ) ;
#640 = ORIENTED_EDGE ( 'NONE', *, *, #461, .T. ) ;
#641 = EDGE_CURVE ( 'NONE', #740, #488, #562, .T. ) ;
#642 = DIRECTION ( 'NONE',  ( 2.846147746615054256E-17, -1.000000000000000000, 0.000000000000000000 ) ) ;
#643 = CIRCLE ( 'NONE', #542, 4.259103427573334599 ) ;
#644 = DIRECTION ( 'NONE',  ( 1.000000000000000000, 2.846147746615054256E-17, 0.000000000000000000 ) ) ;
#645 = AXIS2_PLACEMENT_3D ( 'NONE', #717, #1, #229 ) ;
#646 = CYLINDRICAL_SURFACE ( 'NONE', #24, 7.999999999999996447 ) ;
#647 = ADVANCED_FACE ( 'NONE', ( #291 ), #464, .T. ) ;
#648 = DIRECTION ( 'NONE',  ( -1.000000000000000000, -2.846147746615054256E-17, -0.000000000000000000 ) ) ;
#649 = CARTESIAN_POINT ( 'NONE',  ( 62.87957061030144246, 12.53763369422956586, 2.775616322975896511E-16 ) ) ;
#650 = DIRECTION ( 'NONE',  ( 0.000000000000000000, -1.000000000000000000, 0.000000000000000000 ) ) ;
#651 = AXIS2_PLACEMENT_3D ( 'NONE', #520, #223, #747 ) ;
#652 = DIRECTION ( 'NONE',  ( -1.000000000000000000, -2.846147746615054256E-17, -0.000000000000000000 ) ) ;
#653 = DIRECTION ( 'NONE',  ( -1.000000000000000000, -2.846147746615054256E-17, -0.000000000000000000 ) ) ;
#654 = CIRCLE ( 'NONE', #559, 2.999999999999999112 ) ;
#655 = DIRECTION ( 'NONE',  ( -1.000000000000000000, -2.846147746615054256E-17, -0.000000000000000000 ) ) ;
#656 = APPLICATION_CONTEXT ( 'automotive_design' ) ;
#657 = CARTESIAN_POINT ( 'NONE',  ( 5.000000000000002665, 10.91842629160311162, 0.000000000000000000 ) ) ;
#658 = TOROIDAL_SURFACE ( 'NONE', #32, 2.913718049689090428, 1.689863634793794089 ) ;
#659 = DIRECTION ( 'NONE',  ( 2.846147746615054256E-17, -1.000000000000000000, 0.000000000000000000 ) ) ;
#660 = CARTESIAN_POINT ( 'NONE',  ( 0.9999999999999997780, 10.91842629160311162, 0.000000000000000000 ) ) ;
#661 = ORIENTED_EDGE ( 'NONE', *, *, #461, .F. ) ;
#662 = CIRCLE ( 'NONE', #127, 4.799999999999999822 ) ;
#663 = DIRECTION ( 'NONE',  ( 0.9396926207859069846, 0.3420201433256722656, 0.000000000000000000 ) ) ;
#664 = DIRECTION ( 'NONE',  ( -1.000000000000000000, 0.000000000000000000, 0.000000000000000000 ) ) ;
#665 = AXIS2_PLACEMENT_3D ( 'NONE', #587, #212, #330 ) ;
#666 = ORIENTED_EDGE ( 'NONE', *, *, #282, .F. ) ;
#667 = EDGE_CURVE ( 'NONE', #151, #79, #224, .T. ) ;
#668 = VECTOR ( 'NONE', #612, 1000.000000000000000 ) ;
#669 = ORIENTED_EDGE ( 'NONE', *, *, #225, .T. ) ;
#670 = LINE ( 'NONE', #431, #269 ) ;
#671 = DIRECTION ( 'NONE',  ( 4.210493873730113978E-17, -1.000000000000000000, 0.000000000000000000 ) ) ;
#672 = AXIS2_PLACEMENT_3D ( 'NONE', #160, #753, #515 ) ;
#673 = DIRECTION ( 'NONE',  ( -1.000000000000000000, 0.000000000000000000, 0.000000000000000000 ) ) ;
#674 = CARTESIAN_POINT ( 'NONE',  ( 62.87957061030144246, 9.299218888976660935, 0.000000000000000000 ) ) ;
#675 = CIRCLE ( 'NONE', #749, 4.259103427573334599 ) ;
#676 = DIRECTION ( 'NONE',  ( 0.000000000000000000, -1.000000000000000000, -1.224646799147353207E-16 ) ) ;
#677 = CARTESIAN_POINT ( 'NONE',  ( 63.48321083858993319, 15.17752971917644800, 6.942084720156977529E-16 ) ) ;
#678 = ADVANCED_FACE ( 'NONE', ( #483 ), #658, .T. ) ;
#679 = AXIS2_PLACEMENT_3D ( 'NONE', #554, #440, #676 ) ;
#680 = DIRECTION ( 'NONE',  ( 1.000000000000000000, 0.000000000000000000, 0.000000000000000000 ) ) ;
#681 = DIRECTION ( 'NONE',  ( -1.000000000000000000, -2.846147746615054256E-17, -0.000000000000000000 ) ) ;
#682 = ORIENTED_EDGE ( 'NONE', *, *, #402, .T. ) ;
#683 = CARTESIAN_POINT ( 'NONE',  ( 0.000000000000000000, 0.000000000000000000, 0.000000000000000000 ) ) ;
#684 = VERTEX_POINT ( 'NONE', #715 ) ;
#685 = ORIENTED_EDGE ( 'NONE', *, *, #532, .F. ) ;
#686 = DIRECTION ( 'NONE',  ( 2.846147746615054256E-17, -1.000000000000000000, 0.000000000000000000 ) ) ;
#687 = AXIS2_PLACEMENT_3D ( 'NONE', #146, #389, #671 ) ;
#688 = DIRECTION ( 'NONE',  ( -1.000000000000000000, -2.846147746615054256E-17, -0.000000000000000000 ) ) ;
#689 = ORIENTED_EDGE ( 'NONE', *, *, #568, .T. ) ;
#690 = ORIENTED_EDGE ( 'NONE', *, *, #588, .T. ) ;
#691 = CARTESIAN_POINT ( 'NONE',  ( 27.99943846145030690, 14.11833434002250698, 3.918757149062677958E-16 ) ) ;
#692 = EDGE_CURVE ( 'NONE', #310, #496, #426, .T. ) ;
#693 = DIRECTION ( 'NONE',  ( -1.000000000000000000, -2.846147746615054256E-17, -0.000000000000000000 ) ) ;
#694 = VERTEX_POINT ( 'NONE', #422 ) ;
#695 = CARTESIAN_POINT ( 'NONE',  ( 0.000000000000000000, 10.91842629160311162, 0.000000000000000000 ) ) ;
#696 = AXIS2_PLACEMENT_3D ( 'NONE', #660, #17, #112 ) ;
#697 = ADVANCED_FACE ( 'NONE', ( #597 ), #698, .T. ) ;
#698 = TOROIDAL_SURFACE ( 'NONE', #360, 4.718426291603110556, 3.200000000000000622 ) ;
#699 = APPLICATION_CONTEXT ( 'automotive_design' ) ;
#700 = CARTESIAN_POINT ( 'NONE',  ( 63.48321083858993319, 10.91842629160311340, 0.000000000000000000 ) ) ;
#701 = DIRECTION ( 'NONE',  ( 2.846147746615054256E-17, -1.000000000000000000, 0.000000000000000000 ) ) ;
#702 = DIRECTION ( 'NONE',  ( -1.000000000000000000, -2.846147746615054256E-17, -0.000000000000000000 ) ) ;
#703 = EDGE_CURVE ( 'NONE', #733, #371, #169, .T. ) ;
#704 = CIRCLE ( 'NONE', #37, 7.078181289931055886 ) ;
#705 = TOROIDAL_SURFACE ( 'NONE', #370, 7.918426291603112510, 3.000000000000000444 ) ;
#706 = DIRECTION ( 'NONE',  ( 0.000000000000000000, 1.000000000000000000, 0.000000000000000000 ) ) ;
#707 = EDGE_CURVE ( 'NONE', #505, #7, #73, .T. ) ;
#708 = VECTOR ( 'NONE', #476, 999.9999999999998863 ) ;
#709 = CARTESIAN_POINT ( 'NONE',  ( 2.931532179013505902E-16, 0.6184262916031114665, 0.000000000000000000 ) ) ;
#710 = FACE_OUTER_BOUND ( 'NONE', #132, .T. ) ;
#711 = CONICAL_SURFACE ( 'NONE', #637, 4.000000000000003553, 0.3490658503988696704 ) ;
#712 = DIRECTION ( 'NONE',  ( -1.000000000000000000, -2.846147746615054256E-17, -0.000000000000000000 ) ) ;
#713 = FACE_OUTER_BOUND ( 'NONE', #565, .T. ) ;
#714 = ORIENTED_EDGE ( 'NONE', *, *, #225, .F. ) ;
#715 = CARTESIAN_POINT ( 'NONE',  ( 63.48321083858993319, 13.83214434129220471, 3.568275483169613336E-16 ) ) ;
#716 = DIRECTION ( 'NONE',  ( 0.000000000000000000, 0.000000000000000000, -1.000000000000000000 ) ) ;
#717 = CARTESIAN_POINT ( 'NONE',  ( 50.99991682153975603, 10.91842629160311340, 0.000000000000000000 ) ) ;
#718 = EDGE_LOOP ( 'NONE', ( #158, #728 ) ) ;
#719 = CARTESIAN_POINT ( 'NONE',  ( -3.107545438642875954E-16, 10.91842629160311162, 0.000000000000000000 ) ) ;
#720 = CARTESIAN_POINT ( 'NONE',  ( 5.000000000000002665, 18.83685258320622324, 9.697275412295995944E-16 ) ) ;
#721 = ORIENTED_EDGE ( 'NONE', *, *, #725, .T. ) ;
#722 = ORIENTED_EDGE ( 'NONE', *, *, #410, .F. ) ;
#723 = DIRECTION ( 'NONE',  ( -1.000000000000000000, -2.846147746615054256E-17, -0.000000000000000000 ) ) ;
#724 = CARTESIAN_POINT ( 'NONE',  ( 63.48321083858993319, 10.91842629160311340, 0.000000000000000000 ) ) ;
#725 = EDGE_CURVE ( 'NONE', #627, #79, #670, .T. ) ;
#726 = AXIS2_PLACEMENT_3D ( 'NONE', #379, #185, #114 ) ;
#727 = ORIENTED_EDGE ( 'NONE', *, *, #317, .F. ) ;
#728 = ORIENTED_EDGE ( 'NONE', *, *, #703, .F. ) ;
#729 = DIRECTION ( 'NONE',  ( -1.000000000000000000, -2.846147746615054256E-17, -0.000000000000000000 ) ) ;
#730 =( GEOMETRIC_REPRESENTATION_CONTEXT ( 3 ) GLOBAL_UNCERTAINTY_ASSIGNED_CONTEXT ( ( #411 ) ) GLOBAL_UNIT_ASSIGNED_CONTEXT ( ( #738, #443, #207 ) ) REPRESENTATION_CONTEXT ( 'NONE', 'WORKASPACE' ) );
#731 = EDGE_CURVE ( 'NONE', #180, #742, #372, .T. ) ;
#732 = DIRECTION ( 'NONE',  ( 4.210493873730113978E-17, -1.000000000000000000, 0.000000000000000000 ) ) ;
#733 = VERTEX_POINT ( 'NONE', #606 ) ;
#734 = TOROIDAL_SURFACE ( 'NONE', #45, 92.19990804841940246, 89.00000000000001421 ) ;
#735 = FACE_OUTER_BOUND ( 'NONE', #338, .T. ) ;
#736 = CARTESIAN_POINT ( 'NONE',  ( 60.48321083858993319, 6.659322864029778799, 0.000000000000000000 ) ) ;
#737 = ORIENTED_EDGE ( 'NONE', *, *, #479, .F. ) ;
#738 =( LENGTH_UNIT ( ) NAMED_UNIT ( * ) SI_UNIT ( .MILLI., .METRE. ) );
#739 = DIRECTION ( 'NONE',  ( 1.000000000000000000, 2.846147746615054256E-17, 0.000000000000000000 ) ) ;
#740 = VERTEX_POINT ( 'NONE', #494 ) ;
#741 = CIRCLE ( 'NONE', #604, 7.999999999999998224 ) ;
#742 = VERTEX_POINT ( 'NONE', #134 ) ;
#743 = ORIENTED_EDGE ( 'NONE', *, *, #349, .F. ) ;
#744 = AXIS2_PLACEMENT_3D ( 'NONE', #617, #84, #201 ) ;
#745 = CLOSED_SHELL ( 'NONE', ( #759, #590, #174, #449 ) ) ;
#746 = EDGE_LOOP ( 'NONE', ( #400, #75, #534, #219 ) ) ;
#747 = DIRECTION ( 'NONE',  ( -1.000000000000000000, 0.000000000000000000, 0.000000000000000000 ) ) ;
#748 = EDGE_CURVE ( 'NONE', #101, #505, #553, .T. ) ;
#749 = AXIS2_PLACEMENT_3D ( 'NONE', #700, #702, #52 ) ;
#750 = CARTESIAN_POINT ( 'NONE',  ( 50.99991682153975603, 10.91842629160311340, 0.000000000000000000 ) ) ;
#751 = DIRECTION ( 'NONE',  ( 0.000000000000000000, -1.000000000000000000, 0.000000000000000000 ) ) ;
#752 = ADVANCED_FACE ( 'NONE', ( #176 ), #420, .F. ) ;
#753 = DIRECTION ( 'NONE',  ( 3.485525727792578152E-33, -1.224646799147353207E-16, 1.000000000000000000 ) ) ;
#754 = ORIENTED_EDGE ( 'NONE', *, *, #667, .T. ) ;
#755 = EDGE_LOOP ( 'NONE', ( #179, #575, #119 ) ) ;
#756 = DIRECTION ( 'NONE',  ( 0.000000000000000000, -1.000000000000000000, 0.000000000000000000 ) ) ;
#757 = CIRCLE ( 'NONE', #696, 10.30000000000000071 ) ;
#758 = CARTESIAN_POINT ( 'NONE',  ( 27.99943846145029624, 10.91842629160311162, 0.000000000000000000 ) ) ;
#759 = ADVANCED_FACE ( 'NONE', ( #735 ), #383, .F. ) ;
#760 = AXIS2_PLACEMENT_3D ( 'NONE', #129, #366, #65 ) ;
#761 = DIRECTION ( 'NONE',  ( 3.485525727792578152E-33, -1.224646799147353207E-16, 1.000000000000000000 ) ) ;
ENDSEC;
END-ISO-10303-21;
